<svg viewBox="0 0 1024 1024" xmlns="http://www.w3.org/2000/svg"><rect x="0" y="0" width="1024" height="1024" rx="230.4" fill="#FFFFFF"/><rect x="0.5" y="0.5" width="1023" height="1023" rx="230.4" fill="none" stroke="#ECECF1" stroke-width="1"/><g transform="translate(512.0 512.0) scale(4.3886)"><line x1="-18" y1="-26" x2="-56" y2="44" stroke="#4F46E5" stroke-width="5.5" stroke-linecap="round"/><line x1="-9" y1="-30" x2="-29" y2="48" stroke="#7C3AED" stroke-width="5.5" stroke-linecap="round"/><line x1="0" y1="-32" x2="0" y2="50" stroke="#9333EA" stroke-width="5.5" stroke-linecap="round"/><line x1="9" y1="-30" x2="29" y2="48" stroke="#2563EB" stroke-width="5.5" stroke-linecap="round"/><line x1="18" y1="-26" x2="56" y2="44" stroke="#0EA5E9" stroke-width="5.5" stroke-linecap="round"/><path d="M0 -11 C0 -4 -4 0 -11 0 C-4 0 0 4 0 11 C0 4 4 0 11 0 C4 0 0 -4 0 -11 Z" transform="translate(0 -46)" fill="#312E81"/></g></svg>