<svg viewBox="0 0 460 150" xmlns="http://www.w3.org/2000/svg"><defs><linearGradient id="sky" x1="0" y1="0" x2="1" y2="1"><stop offset="0" stop-color="#4338CA"/><stop offset="0.5" stop-color="#7C3AED"/><stop offset="1" stop-color="#38BDF8"/></linearGradient></defs><rect width="460" height="150" rx="20" fill="#0B1020"/><g transform="translate(75 75) scale(0.4571)"><line x1="-18" y1="-26" x2="-56" y2="44" stroke="#6366F1" stroke-width="5.5" stroke-linecap="round"/><line x1="-9" y1="-30" x2="-29" y2="48" stroke="#8B5CF6" stroke-width="5.5" stroke-linecap="round"/><line x1="0" y1="-32" x2="0" y2="50" stroke="#A855F7" stroke-width="5.5" stroke-linecap="round"/><line x1="9" y1="-30" x2="29" y2="48" stroke="#3B82F6" stroke-width="5.5" stroke-linecap="round"/><line x1="18" y1="-26" x2="56" y2="44" stroke="#38BDF8" stroke-width="5.5" stroke-linecap="round"/><path d="M0 -11 C0 -4 -4 0 -11 0 C-4 0 0 4 0 11 C0 4 4 0 11 0 C4 0 0 -4 0 -11 Z" transform="translate(0 -46)" fill="#FFFFFF"/></g><text x="150" y="93" font-family="Inter,'Segoe UI',Helvetica,Arial,sans-serif" font-size="62" font-weight="700" letter-spacing="0.5"><tspan fill="url(#sky)">C</tspan><tspan fill="#FFFFFF">aelo</tspan></text></svg>